<mxfile host="app.diagrams.net" agent="Mozilla/5.0 (Windows NT 10.0; Win64; x64) AppleWebKit/537.36 (KHTML, like Gecko) Chrome/130.0.0.0 Safari/537.36 Edg/130.0.0.0" version="24.8.0">
  <diagram name="Strona-1" id="yuaCnolpcKw5RJN_dIsA">
    <mxGraphModel dx="452" dy="539" grid="1" gridSize="10" guides="1" tooltips="1" connect="1" arrows="1" fold="1" page="1" pageScale="1" pageWidth="827" pageHeight="1169" math="0" shadow="0">
      <root>
        <mxCell id="0" />
        <mxCell id="1" parent="0" />
        <mxCell id="02XU8BTQKnKunBHPCCt8-1" value="Biblioteka" style="swimlane;whiteSpace=wrap;html=1;" vertex="1" parent="1">
          <mxGeometry x="40" y="80" width="600" height="600" as="geometry" />
        </mxCell>
        <mxCell id="02XU8BTQKnKunBHPCCt8-2" value="Czytelnik" style="swimlane;childLayout=stackLayout;horizontal=1;startSize=50;horizontalStack=0;rounded=1;fontSize=14;fontStyle=0;strokeWidth=2;resizeParent=0;resizeLast=1;shadow=0;dashed=0;align=center;arcSize=4;whiteSpace=wrap;html=1;" vertex="1" parent="02XU8BTQKnKunBHPCCt8-1">
          <mxGeometry x="10" y="40" width="160" height="120" as="geometry" />
        </mxCell>
        <mxCell id="02XU8BTQKnKunBHPCCt8-3" value="+imię&lt;div&gt;&lt;div&gt;+nazwisko&lt;/div&gt;&lt;div&gt;+adres&lt;/div&gt;&lt;/div&gt;" style="align=left;strokeColor=none;fillColor=none;spacingLeft=4;fontSize=12;verticalAlign=top;resizable=0;rotatable=0;part=1;html=1;" vertex="1" parent="02XU8BTQKnKunBHPCCt8-2">
          <mxGeometry y="50" width="160" height="70" as="geometry" />
        </mxCell>
        <mxCell id="02XU8BTQKnKunBHPCCt8-4" value="Książka" style="swimlane;childLayout=stackLayout;horizontal=1;startSize=50;horizontalStack=0;rounded=1;fontSize=14;fontStyle=0;strokeWidth=2;resizeParent=0;resizeLast=1;shadow=0;dashed=0;align=center;arcSize=4;whiteSpace=wrap;html=1;" vertex="1" parent="02XU8BTQKnKunBHPCCt8-1">
          <mxGeometry x="430" y="40" width="160" height="120" as="geometry" />
        </mxCell>
        <mxCell id="02XU8BTQKnKunBHPCCt8-5" value="+ISBN&lt;div&gt;+tytuł&lt;/div&gt;&lt;div&gt;+wydawnictwo&lt;/div&gt;" style="align=left;strokeColor=none;fillColor=none;spacingLeft=4;fontSize=12;verticalAlign=top;resizable=0;rotatable=0;part=1;html=1;" vertex="1" parent="02XU8BTQKnKunBHPCCt8-4">
          <mxGeometry y="50" width="160" height="70" as="geometry" />
        </mxCell>
        <mxCell id="02XU8BTQKnKunBHPCCt8-6" value="Wypożyczenie" style="swimlane;childLayout=stackLayout;horizontal=1;startSize=50;horizontalStack=0;rounded=1;fontSize=14;fontStyle=0;strokeWidth=2;resizeParent=0;resizeLast=1;shadow=0;dashed=0;align=center;arcSize=4;whiteSpace=wrap;html=1;" vertex="1" parent="02XU8BTQKnKunBHPCCt8-1">
          <mxGeometry x="239" y="70" width="122" height="80" as="geometry" />
        </mxCell>
        <mxCell id="02XU8BTQKnKunBHPCCt8-7" value="&lt;div style=&quot;&quot;&gt;&lt;span style=&quot;background-color: initial;&quot;&gt;+data_wypożyczenia&lt;/span&gt;&lt;/div&gt;" style="align=left;strokeColor=none;fillColor=none;spacingLeft=4;fontSize=12;verticalAlign=top;resizable=0;rotatable=0;part=1;html=1;" vertex="1" parent="02XU8BTQKnKunBHPCCt8-6">
          <mxGeometry y="50" width="122" height="30" as="geometry" />
        </mxCell>
        <mxCell id="02XU8BTQKnKunBHPCCt8-13" value="" style="edgeStyle=entityRelationEdgeStyle;fontSize=12;html=1;endArrow=ERoneToMany;startArrow=ERmandOne;rounded=0;entryX=0;entryY=0.5;entryDx=0;entryDy=0;exitX=1;exitY=0.25;exitDx=0;exitDy=0;" edge="1" parent="02XU8BTQKnKunBHPCCt8-1" source="02XU8BTQKnKunBHPCCt8-3" target="02XU8BTQKnKunBHPCCt8-6">
          <mxGeometry width="100" height="100" relative="1" as="geometry">
            <mxPoint x="250" y="360" as="sourcePoint" />
            <mxPoint x="350" y="260" as="targetPoint" />
          </mxGeometry>
        </mxCell>
        <mxCell id="02XU8BTQKnKunBHPCCt8-14" value="" style="edgeStyle=entityRelationEdgeStyle;fontSize=12;html=1;endArrow=ERone;startArrow=ERoneToMany;rounded=0;exitX=1;exitY=0.5;exitDx=0;exitDy=0;entryX=0;entryY=0.25;entryDx=0;entryDy=0;endFill=0;startFill=0;" edge="1" parent="02XU8BTQKnKunBHPCCt8-1" source="02XU8BTQKnKunBHPCCt8-6" target="02XU8BTQKnKunBHPCCt8-5">
          <mxGeometry width="100" height="100" relative="1" as="geometry">
            <mxPoint x="350" y="270" as="sourcePoint" />
            <mxPoint x="450" y="170" as="targetPoint" />
          </mxGeometry>
        </mxCell>
        <mxCell id="02XU8BTQKnKunBHPCCt8-15" value="Autor" style="swimlane;childLayout=stackLayout;horizontal=1;startSize=50;horizontalStack=0;rounded=1;fontSize=14;fontStyle=0;strokeWidth=2;resizeParent=0;resizeLast=1;shadow=0;dashed=0;align=center;arcSize=4;whiteSpace=wrap;html=1;" vertex="1" parent="02XU8BTQKnKunBHPCCt8-1">
          <mxGeometry x="430" y="240" width="160" height="50" as="geometry" />
        </mxCell>
        <mxCell id="02XU8BTQKnKunBHPCCt8-17" value="" style="fontSize=12;html=1;endArrow=ERoneToMany;startArrow=ERoneToMany;rounded=0;entryX=0.5;entryY=1;entryDx=0;entryDy=0;exitX=0.5;exitY=0;exitDx=0;exitDy=0;" edge="1" parent="02XU8BTQKnKunBHPCCt8-1" source="02XU8BTQKnKunBHPCCt8-15" target="02XU8BTQKnKunBHPCCt8-5">
          <mxGeometry width="100" height="100" relative="1" as="geometry">
            <mxPoint x="240" y="280" as="sourcePoint" />
            <mxPoint x="340" y="180" as="targetPoint" />
          </mxGeometry>
        </mxCell>
      </root>
    </mxGraphModel>
  </diagram>
</mxfile>
